# xmcd
#
# Track frame offsets: 
#        150
#        11477
#        24100
#        40932
#        53582
#        67367
#        78672
#        92952
#        102700
#        113091
#        124644
#        141315
#        155323
#
# Disc length: 2198 seconds
#
# Revision: 3
# Processed by: cddbd v1.5.2PL0 Copyright (c) Steve Scherf et al.
# Submitted via: ExactAudioCopyFreeDBPlugin 1.0
#
DISCID=ac08940d
DTITLE=Various Artist - Cadillac Records:  Music From The Motion Pict
DTITLE=ure
DYEAR=2008
DGENRE=Rhythm and Blues
TTITLE0=Mos Def - Maybellene
TTITLE1=Buddy Guy - Forty Days and Forty Nights
TTITLE2=Beyoncé Knowles - Trust in Me
TTITLE3=Soul 7 - Juke (ft Kim Wilson)
TTITLE4=Eamonn Walker - Smokestack Lightnin'
TTITLE5=Mos Def - Promised Land
TTITLE6=Beyoncé Knowles - All I Could Do Was Cry
TTITLE7=Elvis Presley - My Babe
TTITLE8=Jeffrey Wright - I Can't Be Satisfied
TTITLE9=Mos Def - Come On
TTITLE10=Jeffrey Wright and Bill Simms, Jr. - Country Blues
TTITLE11=Q-Tip - Evolution of a Man (ff Al Kapone)
TTITLE12=Terence Blanchard - Radio Station
EXTD=
EXTT0=
EXTT1=
EXTT2=
EXTT3=
EXTT4=
EXTT5=
EXTT6=
EXTT7=
EXTT8=
EXTT9=
EXTT10=
EXTT11=
EXTT12=
PLAYORDER=
